# xmcd
#
# Track frame offsets: 
#        150
#        9625
#        29087
#        42307
#        54277
#        71035
#        86807
#        105862
#        121805
#        135835
#        151737
#        166730
#        183817
#        213445
#        235487
#
# Disc length: 3332 seconds
#
# Revision: 6
# Processed by: cddbd v1.5.1PL2 Copyright (c) Steve Scherf et al.
# Submitted via: ExactAudioCopy v0.95b3
#
DISCID=b90d020f
DTITLE=Lou Reed and John Cale - Songs For Drella
DYEAR=1990
DGENRE=Rock
TTITLE0=Small Town
TTITLE1=Open House
TTITLE2=Style It Takes
TTITLE3=Work
TTITLE4=Trouble With Classicists
TTITLE5=Starlight
TTITLE6=Faces And Names
TTITLE7=Images
TTITLE8=Slip Away (A Warning)
TTITLE9=It Wasn't Me
TTITLE10=I Believe
TTITLE11=Nobody But You
TTITLE12=A Dream
TTITLE13=Forever Changed
TTITLE14=Hello It's Me
EXTD=YEAR: 1990 ID3G: 17
EXTT0=
EXTT1=
EXTT2=
EXTT3=
EXTT4=
EXTT5=
EXTT6=
EXTT7=
EXTT8=
EXTT9=
EXTT10=
EXTT11=
EXTT12=
EXTT13=
EXTT14=
PLAYORDER=
